<svg width="23" height="19" viewBox="0 0 23 19" fill="none" xmlns="http://www.w3.org/2000/svg">
<path opacity="0.25" fill-rule="evenodd" clip-rule="evenodd" d="M20.4801 5.56734C20.4801 5.37206 20.4801 5.1754 20.4658 4.98012C21.3814 4.33666 22.1718 3.53988 22.8 2.6271C21.945 2.99549 21.0401 3.23647 20.1139 3.34312C21.0904 2.77479 21.8211 1.88098 22.1702 0.828049C21.2517 1.35778 20.2469 1.73108 19.199 1.93185C18.4936 1.20341 17.5609 0.721163 16.5451 0.559688C15.5293 0.398213 14.4871 0.566511 13.5796 1.03855C12.6722 1.51059 11.95 2.26008 11.5248 3.17109C11.0997 4.0821 10.9952 5.10387 11.2276 6.07839C9.36787 5.98762 7.54858 5.5178 5.8878 4.69941C4.22703 3.88103 2.76187 2.73238 1.58745 1.32802C0.989211 2.3288 0.805923 3.51355 1.0749 4.64106C1.34389 5.76857 2.04491 6.75405 3.03525 7.39686C2.29089 7.37582 1.56265 7.18107 0.912 6.82903V6.88443C0.91201 7.9344 1.28581 8.95204 1.96996 9.76464C2.65412 10.5772 3.60648 11.1348 4.66545 11.3426C3.97575 11.5254 3.2547 11.5503 2.55217 11.4201C2.85095 12.3236 3.43287 13.1138 4.21653 13.68C5.00018 14.2462 5.94635 14.5601 6.92265 14.5778C5.95269 15.3185 4.84205 15.866 3.65421 16.1892C2.46637 16.5124 1.22464 16.6049 0 16.4613C2.13934 17.7957 4.62862 18.5034 7.1706 18.5C15.7733 18.5041 20.4801 11.5752 20.4801 5.56873V5.56734Z" fill="white"/>
</svg>
